<svg data-v-423bf9ae="" xmlns="http://www.w3.org/2000/svg" viewBox="0 0 523.9360780926893 60" class="font"><!----><!----><defs data-v-423bf9ae=""><linearGradient data-v-423bf9ae="" gradientTransform="rotate(25)" id="2b655939-c76d-4352-a97d-673a1f5205fb" x1="0%" y1="0%" x2="100%" y2="0%"><stop data-v-423bf9ae="" offset="0%" style="stop-color: rgb(120, 49, 146); stop-opacity: 1;"></stop><stop data-v-423bf9ae="" offset="100%" style="stop-color: rgb(89, 188, 200); stop-opacity: 1;"></stop></linearGradient></defs><g data-v-423bf9ae="" id="47d67ead-f625-4b25-a338-116b34b74a21" fill="url(#2b655939-c76d-4352-a97d-673a1f5205fb)" transform="matrix(5.994006428013066,0,0,5.994006428013066,-2.877128932366304,-44.23576860153318)"><path d="M2.98 17.39Q1.36 17.39 0.48 17.04L0.48 17.04L0.60 16.17Q1.18 16.30 1.92 16.37Q2.66 16.44 3.35 16.44L3.35 16.44Q4.52 16.44 4.91 16.34L4.91 16.34L4.91 13.33L2.46 13.03L2.46 12.43L4.91 12.05L4.91 9.27Q4.54 9.17 3.68 9.17L3.68 9.17Q3.00 9.17 2.25 9.24Q1.51 9.31 0.94 9.44L0.94 9.44L0.83 8.57Q1.78 8.22 3.49 8.22L3.49 8.22Q6.10 8.22 6.10 10.61L6.10 10.61Q6.10 11.33 5.83 11.88Q5.56 12.43 5.07 12.70L5.07 12.70L5.07 12.77Q5.61 13.08 5.86 13.59Q6.10 14.10 6.10 14.90L6.10 14.90Q6.10 15.85 5.82 16.39Q5.53 16.93 4.86 17.16Q4.19 17.39 2.98 17.39L2.98 17.39ZM8.23 8.43L11.21 8.43Q12.64 8.43 13.32 8.76Q14 9.10 14.25 10.00Q14.50 10.89 14.50 12.81L14.50 12.81Q14.50 14.71 14.25 15.61Q14 16.51 13.32 16.84Q12.64 17.18 11.21 17.18L11.21 17.18L8.23 17.18L8.23 8.43ZM9.35 9.38L9.35 16.23L12.19 16.23Q12.81 16.23 13.05 16.00Q13.29 15.76 13.29 15.18L13.29 15.18L13.29 10.43Q13.29 9.84 13.05 9.61Q12.81 9.38 12.19 9.38L12.19 9.38L9.35 9.38ZM27.82 10.05Q29.78 10.05 29.78 11.16L29.78 11.16L29.78 17.18L28.66 17.18L28.66 10.96L27.02 10.96Q26.33 10.96 26.05 11.10Q25.77 11.24 25.72 11.62L25.72 11.62L25.72 17.18L24.60 17.18L24.60 10.96L22.96 10.96Q22.19 10.96 21.92 11.15Q21.64 11.34 21.64 11.86L21.64 11.86L21.64 17.18L20.52 17.18L20.52 10.18L21.01 10.18L21.34 10.88Q21.83 10.44 22.40 10.25Q22.97 10.05 23.76 10.05L23.76 10.05Q25.26 10.05 25.61 10.70L25.61 10.70Q26.04 10.36 26.58 10.21Q27.12 10.05 27.82 10.05L27.82 10.05ZM32.28 17.18L32.28 17.18ZM32.45 10.22L33.57 10.04L33.57 17.18L32.45 17.18L32.45 10.22ZM33.03 8.83Q32.59 8.83 32.44 8.69Q32.28 8.54 32.28 8.12L32.28 8.12Q32.28 7.69 32.44 7.53Q32.59 7.38 33.03 7.38L33.03 7.38Q33.45 7.38 33.59 7.53Q33.74 7.69 33.74 8.12L33.74 8.12Q33.74 8.54 33.60 8.69Q33.46 8.83 33.03 8.83L33.03 8.83ZM36.32 17.18L36.32 10.18L36.81 10.18L37.13 10.88Q37.63 10.44 38.25 10.25Q38.86 10.05 39.69 10.05L39.69 10.05Q41.65 10.05 41.65 11.16L41.65 11.16L41.65 17.18L40.53 17.18L40.53 10.96L38.75 10.96Q37.98 10.96 37.71 11.15Q37.44 11.34 37.44 11.86L37.44 11.86L37.44 17.18L36.32 17.18ZM44.16 17.18L44.16 17.18ZM44.32 10.22L45.44 10.04L45.44 17.18L44.32 17.18L44.32 10.22ZM44.90 8.83Q44.46 8.83 44.31 8.69Q44.16 8.54 44.16 8.12L44.16 8.12Q44.16 7.69 44.31 7.53Q44.46 7.38 44.90 7.38L44.90 7.38Q45.32 7.38 45.47 7.53Q45.61 7.69 45.61 8.12L45.61 8.12Q45.61 8.54 45.47 8.69Q45.33 8.83 44.90 8.83L44.90 8.83ZM47.31 13.29Q47.31 12.98 47.44 12.91Q47.57 12.84 47.96 12.84L47.96 12.84L51.24 12.84L51.24 13.37Q51.24 13.68 51.11 13.75Q50.97 13.82 50.57 13.82L50.57 13.82L47.31 13.82L47.31 13.29ZM55.40 16.38Q55.97 16.38 56.50 16.31Q57.04 16.24 57.81 16.06L57.81 16.06L57.96 16.90Q57.48 17.08 56.73 17.19Q55.97 17.30 55.16 17.30L55.16 17.30Q54.10 17.30 53.57 17.01Q53.05 16.72 52.84 15.95Q52.64 15.19 52.64 13.68L52.64 13.68Q52.64 12.24 52.88 11.47Q53.13 10.70 53.73 10.37Q54.32 10.05 55.44 10.05L55.44 10.05Q56.55 10.05 57.11 10.23Q57.68 10.40 57.91 10.83Q58.14 11.26 58.14 12.10L58.14 12.10Q58.14 13.16 57.87 13.59Q57.60 14.03 56.74 14.17Q55.89 14.31 53.80 14.31L53.80 14.31L53.80 16.21Q54.40 16.38 55.40 16.38L55.40 16.38ZM55.01 11.02Q54.31 11.02 54.05 11.20Q53.80 11.38 53.80 11.89L53.80 11.89L53.80 13.50L55.92 13.50Q56.63 13.50 56.88 13.31Q57.13 13.13 57.13 12.64L57.13 12.64L57.13 11.02L55.01 11.02ZM64.61 7.83L65.73 7.67L65.73 17.18L65.24 17.18L64.97 16.63Q64.71 17.07 64.19 17.23Q63.67 17.39 62.72 17.39L62.72 17.39Q61.59 17.39 61.05 17.12Q60.52 16.84 60.33 16.08Q60.13 15.32 60.13 13.68L60.13 13.68Q60.13 12.14 60.32 11.39Q60.51 10.64 61.00 10.35Q61.49 10.05 62.50 10.05L62.50 10.05Q63.29 10.05 63.80 10.14Q64.30 10.22 64.61 10.42L64.61 10.42L64.61 7.83ZM64.61 16.09L64.61 11.00L61.95 11.00Q61.56 11.00 61.43 11.07Q61.29 11.14 61.29 11.35L61.29 11.35L61.29 16.44L63.94 16.44Q64.34 16.44 64.48 16.37Q64.61 16.30 64.61 16.09L64.61 16.09ZM68.31 17.18L68.31 17.18ZM68.47 10.22L69.59 10.04L69.59 17.18L68.47 17.18L68.47 10.22ZM69.05 8.83Q68.61 8.83 68.46 8.69Q68.31 8.54 68.31 8.12L68.31 8.12Q68.31 7.69 68.46 7.53Q68.61 7.38 69.05 7.38L69.05 7.38Q69.47 7.38 69.62 7.53Q69.76 7.69 69.76 8.12L69.76 8.12Q69.76 8.54 69.62 8.69Q69.48 8.83 69.05 8.83L69.05 8.83ZM75.21 10.98L73.91 10.98L73.91 16.34Q74.80 16.39 74.93 16.39L74.93 16.39L74.86 17.16Q74.06 17.30 73.67 17.30L73.67 17.30Q72.79 17.30 72.79 16.35L72.79 16.35L72.79 10.98L71.75 10.98L71.75 10.18L72.79 10.18L72.79 8.61L73.91 8.33L73.91 10.18L75.21 10.18L75.21 10.98ZM79.72 17.30Q78.47 17.30 77.87 17.02Q77.27 16.73 77.04 15.98Q76.82 15.23 76.82 13.68L76.82 13.68Q76.82 12.12 77.04 11.38Q77.27 10.63 77.87 10.34Q78.47 10.05 79.72 10.05L79.72 10.05Q80.98 10.05 81.58 10.33Q82.18 10.61 82.40 11.36Q82.63 12.11 82.63 13.68L82.63 13.68Q82.63 15.23 82.40 15.98Q82.18 16.73 81.57 17.02Q80.96 17.30 79.72 17.30L79.72 17.30ZM77.97 16.35L80.78 16.35Q81.20 16.35 81.34 16.28Q81.48 16.21 81.48 16.00L81.48 16.00L81.48 11.00L78.67 11.00Q78.25 11.00 78.11 11.07Q77.97 11.14 77.97 11.35L77.97 11.35L77.97 16.35ZM85.43 10.18L85.86 11.33Q86.53 10.74 86.98 10.42Q87.42 10.11 87.75 9.97L87.75 9.97L87.89 11.07Q87.42 11.23 86.91 11.49Q86.41 11.76 86.04 12.04L86.04 12.04L86.04 17.18L84.92 17.18L84.92 10.18L85.43 10.18Z"></path></g><!----><!----></svg>